<svg id="Capa_1" data-name="Capa 1" xmlns="http://www.w3.org/2000/svg" viewBox="0 0 276.5 414"><defs><style>.cls-1{fill:#fff;}</style></defs><path class="cls-1" d="M408.08,109.54c-12.14,3.3-12.71,19.76-12.71,19.76.53-3.84,3.13-6.77,4.93-7.07s4.15-1.22,4.84-3c-1.91-1.77-5.25-1.59-6.15-.49,3.36-8,12.34-4.33,14-1.83-.4-4-2.93-5.3-4.23-5.49,6.36-1.18,9.12,6.29,9.31,11.08s-3.2,5.49-3.58,3.5,1.38-2.52,1.79-2.2c-.49-2.68-2.58-3.41-3.56-1s.44,8.29,4.67,5.85S420.21,106.25,408.08,109.54Z" transform="translate(-253.09 -85)"/><path class="cls-1" d="M447.15,117c-4.24-2.44-5.65,3.42-4.67,5.86s3.07,1.71,3.56-1c-.41.33-2.18-.2-1.8-2.19s3.78-1.31,3.59,3.49-3,12.26-9.32,11.08c1.31-.18,3.83-1.52,4.24-5.49-1.63,2.5-10.62,6.15-14-1.83.9,1.1,4.23,1.28,6.15-.49-.69-1.76-3.06-2.68-4.85-3s-4.4-3.24-4.93-7.08c0,0,.57,16.47,12.71,19.76S451.38,119.46,447.15,117Z" transform="translate(-253.09 -85)"/><path class="cls-1" d="M421.76,109.64c4.81-3.41,6.11-9.51,2.61-13.9s-7.05-.31-7,3.35,2.89,4.88,4.16,2.2c-.45.18-1.67-1-.65-2.26s3.17.06,3,3.54-3,5.06-7.25,3.84-7.9-1.28-9.61,0a17.24,17.24,0,0,0,4.8-7.62c-2.07-.12-9.15,1.36-11.89,15.37,0,0,5.7-8.66,14.09-6.1s10.1,12.93,10.35,16.46C425.75,120.38,424.78,111.72,421.76,109.64Z" transform="translate(-253.09 -85)"/><path class="cls-1" d="M425.56,106.22c2.84.69,5.1,3,7.82,5.76a10.6,10.6,0,0,1-7.61,4.89c2,1,6.79,2.52,12.33-4.22C433.87,105.68,425.56,106.22,425.56,106.22Z" transform="translate(-253.09 -85)"/><path class="cls-1" d="M424.72,108.09a5.63,5.63,0,0,1-1.5,1.69c1,.43,1.58,2.86,1.58,2.86a5.86,5.86,0,0,0,6.23,0C429.89,110,424.72,108.09,424.72,108.09Z" transform="translate(-253.09 -85)"/><path class="cls-1" d="M458.14,120.21c-4.61-11-11.89-12.77-15-9.39-4.66,5-1.9,14.51-1.9,14.51s-1.74-9.11,3.15-11.79,8.82,3.88,12.81,12.93c3.45,7.81,11.57,8.62,12.82-4.88C467.05,128.09,462.25,130,458.14,120.21Z" transform="translate(-253.09 -85)"/><path class="cls-1" d="M455.19,125.9c-.85-2.68-4.19-9.78-6.44-9.49,0,0,3,5,0,14.53.65,0,3.69-3.58,3.47-6.18,2.07,7.32,7.16,9.4,8.47,8.21C458.2,132.24,456,128.58,455.19,125.9Z" transform="translate(-253.09 -85)"/><path class="cls-1" d="M410.19,116.4c-1.35,0-2.45,1.64-2.45,3.66s1.1,3.66,2.45,3.66,2.44-1.64,2.44-3.66S411.54,116.4,410.19,116.4Z" transform="translate(-253.09 -85)"/><path class="cls-1" d="M374.61,109.54c-12.14-3.29-13.52,16.71-9.29,19.15s5.65-3.41,4.67-5.85-3.06-1.71-3.55,1c.4-.32,2.17.21,1.79,2.2s-3.78,1.3-3.59-3.5,3-12.26,9.32-11.08c-1.31.19-3.83,1.53-4.24,5.49,1.63-2.5,10.62-6.15,14,1.83-.89-1.1-4.23-1.28-6.15.49.69,1.77,3.06,2.68,4.85,3s4.4,3.23,4.93,7.07C387.32,129.3,386.75,112.84,374.61,109.54Z" transform="translate(-253.09 -85)"/><path class="cls-1" d="M352.6,123.49c-1.79.3-4.15,1.22-4.84,3,1.91,1.77,5.25,1.59,6.15.49-3.36,8-12.35,4.33-14,1.83.41,4,2.94,5.31,4.24,5.49-6.36,1.18-9.12-6.28-9.31-11.08s3.2-5.49,3.58-3.49-1.38,2.52-1.79,2.19c.49,2.69,2.58,3.42,3.56,1s-.44-8.3-4.67-5.86-2.85,22.45,9.28,19.15,12.71-19.76,12.71-19.76C357,120.25,354.39,123.18,352.6,123.49Z" transform="translate(-253.09 -85)"/><path class="cls-1" d="M382.76,114.16c-2.74-14-9.82-15.49-11.9-15.37a17.29,17.29,0,0,0,4.81,7.62c-1.71-1.28-5.34-1.22-9.61,0s-7.05-.36-7.25-3.84,1.95-4.82,3-3.54-.2,2.44-.65,2.26c1.26,2.68,4.07,1.46,4.15-2.2s-3.46-7.74-7-3.35-2.2,10.49,2.6,13.9c-3,2.08-4,10.74-2.6,14.88.24-3.53,1.95-13.9,10.34-16.46S382.76,114.16,382.76,114.16Z" transform="translate(-253.09 -85)"/><path class="cls-1" d="M356.91,116.87a10.58,10.58,0,0,1-7.6-4.89c2.71-2.75,5-5.07,7.82-5.76,0,0-8.31-.54-12.55,6.43C350.12,119.39,355,117.85,356.91,116.87Z" transform="translate(-253.09 -85)"/><path class="cls-1" d="M357.89,112.64s.6-2.43,1.57-2.86a5.69,5.69,0,0,1-1.49-1.69s-5.17,1.93-6.31,4.55A5.86,5.86,0,0,0,357.89,112.64Z" transform="translate(-253.09 -85)"/><path class="cls-1" d="M391.34,95.57s9,3.74,7.71,18c.66-5,3.7-11.14,3.7-11.14s-3-14.47-11.41-17.4c-8.36,2.93-11.4,17.4-11.4,17.4s3,6.18,3.69,11.14C382.33,99.31,391.34,95.57,391.34,95.57Z" transform="translate(-253.09 -85)"/><path class="cls-1" d="M325.52,126.47c4-9,7.93-15.61,12.82-12.93s3.15,11.79,3.15,11.79,2.75-9.53-1.9-14.51c-3.15-3.38-10.43-1.64-15,9.39-4.1,9.8-8.9,7.88-11.84,1.38C314,135.09,322.07,134.28,325.52,126.47Z" transform="translate(-253.09 -85)"/><path class="cls-1" d="M333.94,116.41c-2.26-.29-5.6,6.81-6.44,9.49s-3,6.34-5.51,7.07c1.31,1.19,6.41-.89,8.47-8.21-.21,2.6,2.83,6.18,3.48,6.18C331,121.43,333.94,116.41,333.94,116.41Z" transform="translate(-253.09 -85)"/><path class="cls-1" d="M372.5,116.4c-1.35,0-2.45,1.64-2.45,3.66s1.1,3.66,2.45,3.66,2.44-1.64,2.44-3.66S373.85,116.4,372.5,116.4Z" transform="translate(-253.09 -85)"/><path class="cls-1" d="M391.34,100.84c-2.87,0-5.2,3.48-5.2,7.78s5.2,21.47,5.2,21.47,5.2-17.17,5.2-21.47S394.21,100.84,391.34,100.84Z" transform="translate(-253.09 -85)"/><path class="cls-1" d="M374.61,474.45c12.14-3.29,12.71-19.75,12.71-19.75-.53,3.84-3.14,6.77-4.93,7.07s-4.16,1.22-4.85,3c1.92,1.77,5.26,1.58,6.15.49-3.35,8-12.34,4.33-14,1.83.41,4,2.93,5.3,4.24,5.48-6.36,1.19-9.13-6.28-9.32-11.07s3.21-5.49,3.59-3.5-1.39,2.52-1.79,2.19c.49,2.69,2.58,3.42,3.55,1s-.43-8.29-4.67-5.85S362.47,477.75,374.61,474.45Z" transform="translate(-253.09 -85)"/><path class="cls-1" d="M335.54,467c4.23,2.44,5.64-3.41,4.67-5.85s-3.07-1.71-3.56,1c.41-.33,2.17.2,1.79,2.19s-3.77,1.3-3.58-3.49,2.95-12.26,9.31-11.08c-1.3.18-3.83,1.52-4.23,5.48,1.62-2.49,10.61-6.14,14,1.83-.9-1.09-4.24-1.27-6.15.49.69,1.77,3.05,2.69,4.84,3s4.4,3.23,4.93,7.08c0,0-.57-16.47-12.71-19.76S331.3,464.54,335.54,467Z" transform="translate(-253.09 -85)"/><path class="cls-1" d="M368.66,475.94c-8.39-2.56-10.1-12.93-10.34-16.47-1.39,4.15-.41,12.81,2.6,14.88-4.8,3.42-6.11,9.52-2.6,13.91s7,.31,7-3.35-2.89-4.88-4.15-2.2c.45-.18,1.67,1,.65,2.26s-3.18-.06-3-3.54,3-5.06,7.25-3.84,7.9,1.28,9.61,0a17.24,17.24,0,0,0-4.81,7.62c2.08.12,9.16-1.36,11.9-15.37C382.76,469.84,377.05,478.5,368.66,475.94Z" transform="translate(-253.09 -85)"/><path class="cls-1" d="M357.13,477.78c-2.84-.69-5.11-3-7.82-5.76a10.58,10.58,0,0,1,7.6-4.89c-2-1-6.79-2.53-12.33,4.22C348.82,478.32,357.13,477.78,357.13,477.78Z" transform="translate(-253.09 -85)"/><path class="cls-1" d="M351.66,471.35c1.14,2.63,6.31,4.56,6.31,4.56a5.69,5.69,0,0,1,1.49-1.69c-1-.43-1.57-2.87-1.57-2.87A5.89,5.89,0,0,0,351.66,471.35Z" transform="translate(-253.09 -85)"/><path class="cls-1" d="M338.34,470.46c-4.89,2.68-8.82-3.89-12.82-12.94-3.45-7.8-11.57-8.61-12.82,4.89,2.94-6.51,7.74-8.43,11.84,1.38,4.62,11,11.9,12.77,15,9.39,4.65-5,1.9-14.51,1.9-14.51S343.23,467.78,338.34,470.46Z" transform="translate(-253.09 -85)"/><path class="cls-1" d="M327.5,458.1c.85,2.68,4.18,9.78,6.44,9.49,0,0-3-5,0-14.53-.65,0-3.69,3.58-3.48,6.18-2.06-7.32-7.16-9.4-8.47-8.22C324.49,451.76,326.66,455.42,327.5,458.1Z" transform="translate(-253.09 -85)"/><path class="cls-1" d="M372.5,467.59c1.35,0,2.44-1.63,2.44-3.66s-1.09-3.65-2.44-3.65-2.45,1.63-2.45,3.65S371.15,467.59,372.5,467.59Z" transform="translate(-253.09 -85)"/><path class="cls-1" d="M408.08,474.45c12.13,3.3,13.52-16.7,9.28-19.14s-5.65,3.41-4.67,5.85,3.07,1.71,3.56-1c-.41.33-2.17-.2-1.79-2.19s3.77-1.3,3.58,3.5-3,12.26-9.31,11.07c1.3-.18,3.83-1.52,4.23-5.48-1.63,2.5-10.61,6.14-14-1.83.9,1.09,4.24,1.28,6.15-.49-.69-1.77-3.05-2.69-4.84-3s-4.4-3.23-4.93-7.07C395.37,454.7,395.94,471.16,408.08,474.45Z" transform="translate(-253.09 -85)"/><path class="cls-1" d="M430.08,460.51c1.79-.3,4.16-1.22,4.85-3-1.92-1.76-5.26-1.58-6.15-.49,3.35-8,12.34-4.32,14-1.83-.41-4-2.93-5.3-4.24-5.48,6.36-1.18,9.13,6.28,9.32,11.08s-3.21,5.48-3.59,3.49,1.39-2.52,1.8-2.19c-.49-2.69-2.58-3.42-3.56-1s.43,8.29,4.67,5.85,2.85-22.44-9.29-19.14-12.71,19.76-12.71,19.76C425.68,463.74,428.29,460.82,430.08,460.51Z" transform="translate(-253.09 -85)"/><path class="cls-1" d="M421.76,474.35c3-2.07,4-10.73,2.61-14.88-.25,3.54-2,13.91-10.35,16.47s-14.09-6.1-14.09-6.1c2.74,14,9.82,15.49,11.89,15.37a17.19,17.19,0,0,0-4.8-7.62c1.71,1.28,5.33,1.22,9.61,0s7.05.36,7.25,3.84-2,4.82-3,3.54.2-2.44.65-2.26c-1.27-2.68-4.08-1.46-4.16,2.2s3.47,7.74,7,3.35S426.57,477.77,421.76,474.35Z" transform="translate(-253.09 -85)"/><path class="cls-1" d="M425.77,467.13a10.6,10.6,0,0,1,7.61,4.89c-2.72,2.75-5,5.07-7.82,5.76,0,0,8.31.54,12.54-6.43C432.56,464.6,427.73,466.15,425.77,467.13Z" transform="translate(-253.09 -85)"/><path class="cls-1" d="M423.22,474.22a5.63,5.63,0,0,1,1.5,1.69s5.17-1.93,6.31-4.56a5.89,5.89,0,0,0-6.23,0S424.2,473.79,423.22,474.22Z" transform="translate(-253.09 -85)"/><path class="cls-1" d="M391.34,488.43s-9-3.74-7.71-18c-.65,5-3.69,11.14-3.69,11.14s3,14.47,11.4,17.4c8.37-2.93,11.41-17.4,11.41-17.4s-3-6.18-3.7-11.14C400.36,484.69,391.34,488.43,391.34,488.43Z" transform="translate(-253.09 -85)"/><path class="cls-1" d="M457.16,457.52c-4,9.05-7.92,15.62-12.81,12.94s-3.15-11.79-3.15-11.79-2.76,9.53,1.9,14.51c3.15,3.38,10.43,1.64,15-9.39,4.11-9.81,8.91-7.89,11.84-1.38C468.73,448.91,460.61,449.72,457.16,457.52Z" transform="translate(-253.09 -85)"/><path class="cls-1" d="M448.75,467.59c2.25.29,5.59-6.81,6.44-9.49s3-6.34,5.5-7.08c-1.31-1.18-6.4.9-8.47,8.22.22-2.6-2.82-6.18-3.47-6.18C451.73,462.57,448.75,467.59,448.75,467.59Z" transform="translate(-253.09 -85)"/><path class="cls-1" d="M410.19,467.59c1.35,0,2.44-1.63,2.44-3.66s-1.09-3.65-2.44-3.65-2.45,1.63-2.45,3.65S408.84,467.59,410.19,467.59Z" transform="translate(-253.09 -85)"/><path class="cls-1" d="M391.34,483.16c2.87,0,5.2-3.48,5.2-7.78s-5.2-21.47-5.2-21.47-5.2,17.17-5.2,21.47S388.47,483.16,391.34,483.16Z" transform="translate(-253.09 -85)"/><path class="cls-1" d="M500.41,331c1.63,6.34,15,4.27,12.79-13.91S500,298,500,298c2.57.79,4.53,4.69,4.73,7.38s.81,6.22,2,7.25c1.19-2.86,1.06-7.86.33-9.21,5.33,5,2.89,18.48,1.22,20.92,2.65-.61,3.55-4.39,3.67-6.34.79,9.52-4.2,13.66-7.4,14s-3.67-4.8-2.34-5.37,1.69,2.07,1.47,2.68c1.79-.73,2.28-3.86.65-5.32S498.78,324.61,500.41,331Z" transform="translate(-253.09 -85)"/><path class="cls-1" d="M508.21,375.56c1.63-6.35-2.28-8.46-3.91-7s-1.15,4.6.65,5.33c-.22-.61.13-3.25,1.46-2.68s.87,5.65-2.33,5.36-8.19-4.42-7.4-13.94c.12,1.95,1,5.73,3.66,6.34-1.66-2.44-4.1-15.9,1.23-20.92-.74,1.34-.86,6.34.32,9.21,1.18-1,1.79-4.57,2-7.26s2.16-6.58,4.72-7.38c0,0-11,.86-13.19,19S506.58,381.9,508.21,375.56Z" transform="translate(-253.09 -85)"/><path class="cls-1" d="M520.18,331c-2.44.12-3.26,4.33-1.47,6.22-.12-.67.66-2.5,1.51-1s0,4.76-2.36,4.46-3.38-4.46-2.57-10.86.86-11.83,0-14.39c1.8,4.51,4.44,6.95,5.1,7.19.08-3.11-.92-13.7-10.27-17.8a32.32,32.32,0,0,1,4.07,21.1c-1.71,12.56-8.63,15.12-11,15.49,2.77,2.07,8.55.61,9.93-3.9,2.29,7.19,6.36,9.14,9.29,3.9S522.62,330.9,520.18,331Z" transform="translate(-253.09 -85)"/><path class="cls-1" d="M511.57,354.94c-1.45-1.79-3.16-6.83-3.26-11.39A26.32,26.32,0,0,0,511.13,362c4.65-6.34,4.29-18.78,4.29-18.78C515,347.48,513.41,350.87,511.57,354.94Z" transform="translate(-253.09 -85)"/><path class="cls-1" d="M514.17,342a7.39,7.39,0,0,1-1.13-2.24,4.09,4.09,0,0,1-1.91,2.36,18.42,18.42,0,0,0,0,9.33C512.88,349.71,514.17,342,514.17,342Z" transform="translate(-253.09 -85)"/><path class="cls-1" d="M502.66,366.65s6.08-2.61,7.87,4.71-2.59,13.21-8.64,19.19c-5.21,5.16-5.75,17.32,3.27,19.19-4.35-4.39-5.63-11.58.92-17.72,7.37-6.92,8.53-17.81,6.27-22.53C509,362.52,502.66,366.65,502.66,366.65Z" transform="translate(-253.09 -85)"/><path class="cls-1" d="M502.28,387.59c1.79-1.27,6.53-6.26,6.33-9.64,0,0-3.35,4.47-9.7,0,0,1,2.39,5.53,4.13,5.2-4.89,3.09-6.28,10.72-5.49,12.69A13,13,0,0,1,502.28,387.59Z" transform="translate(-253.09 -85)"/><path class="cls-1" d="M506.17,323.87c1.36,0,2.45-1.63,2.45-3.65s-1.09-3.66-2.45-3.66-2.44,1.63-2.44,3.66S504.83,323.87,506.17,323.87Z" transform="translate(-253.09 -85)"/><path class="cls-1" d="M500,286s11-.85,13.2-19S502,246.7,500.41,253s2.28,8.46,3.91,7,1.14-4.59-.65-5.32c.22.61-.14,3.25-1.47,2.68s-.87-5.65,2.34-5.37,8.19,4.43,7.4,14c-.12-2-1-5.73-3.67-6.34,1.67,2.44,4.11,15.89-1.22,20.91.73-1.34.86-6.34-.33-9.2-1.18,1-1.79,4.57-2,7.25S502.57,285.18,500,286Z" transform="translate(-253.09 -85)"/><path class="cls-1" d="M508.61,241.37c-2.56-.79-4.52-4.69-4.72-7.38s-.82-6.21-2-7.25c-1.18,2.86-1.06,7.86-.32,9.21-5.33-5-2.89-18.48-1.23-20.92-2.64.61-3.54,4.39-3.66,6.34-.79-9.52,4.19-13.66,7.4-13.94s3.66,4.79,2.33,5.36-1.68-2.07-1.46-2.68c-1.8.73-2.28,3.86-.65,5.32s5.54-.65,3.91-7-15-4.27-12.79,13.91S508.61,241.37,508.61,241.37Z" transform="translate(-253.09 -85)"/><path class="cls-1" d="M513.13,246.45c-1.38-4.51-7.16-6-9.93-3.9,2.36.37,9.28,2.93,11,15.49a32.34,32.34,0,0,1-4.07,21.1c9.35-4.1,10.35-14.7,10.27-17.81-.66.25-3.3,2.69-5.1,7.2.86-2.56.82-8,0-14.39s.25-10.55,2.57-10.86,3.22,2.93,2.36,4.45-1.63-.3-1.51-1c-1.79,1.89-1,6.1,1.47,6.22s5.17-5.18,2.24-10.43S515.42,239.26,513.13,246.45Z" transform="translate(-253.09 -85)"/><path class="cls-1" d="M511.13,222a26.32,26.32,0,0,0-2.82,18.46c.1-4.56,1.81-9.6,3.26-11.39,1.84,4.07,3.39,7.46,3.85,11.71C515.42,240.77,515.78,228.33,511.13,222Z" transform="translate(-253.09 -85)"/><path class="cls-1" d="M513,244.27a7.39,7.39,0,0,1,1.13-2.24s-1.29-7.74-3-9.45a18.42,18.42,0,0,0,0,9.33A4,4,0,0,1,513,244.27Z" transform="translate(-253.09 -85)"/><path class="cls-1" d="M518,274.92s-4.13,4.56-7.44,5.53c9.51-1.95,12,11.55,12,11.55s-2.49,13.5-12,11.55c3.31,1,7.44,5.52,7.44,5.52A23.06,23.06,0,0,0,529.59,292,23.09,23.09,0,0,0,518,274.92Z" transform="translate(-253.09 -85)"/><path class="cls-1" d="M501.89,193.45c6.05,6,10.43,11.87,8.64,19.19s-7.87,4.71-7.87,4.71,6.36,4.13,9.69-2.84c2.26-4.72,1.1-15.62-6.27-22.53-6.55-6.14-5.27-13.33-.92-17.72C496.14,176.13,496.68,188.29,501.89,193.45Z" transform="translate(-253.09 -85)"/><path class="cls-1" d="M503,200.85c-1.74-.33-4.13,4.22-4.13,5.2,6.35-4.47,9.7,0,9.7,0,.2-3.38-4.54-8.38-6.33-9.64a13,13,0,0,1-4.73-8.25C496.76,190.12,498.15,197.76,503,200.85Z" transform="translate(-253.09 -85)"/><path class="cls-1" d="M508.62,263.78c0-2-1.09-3.66-2.45-3.66s-2.44,1.64-2.44,3.66,1.1,3.66,2.44,3.66S508.62,265.8,508.62,263.78Z" transform="translate(-253.09 -85)"/><path class="cls-1" d="M519,292c0-4.3-2.33-7.78-5.2-7.78S499.48,292,499.48,292s11.47,7.78,14.34,7.78S519,296.3,519,292Z" transform="translate(-253.09 -85)"/><path class="cls-1" d="M282.27,253c-1.63-6.34-15-4.27-12.79,13.91s13.2,19,13.2,19c-2.57-.79-4.52-4.69-4.72-7.38s-.82-6.22-2-7.25c-1.18,2.86-1.06,7.86-.33,9.2-5.32-5-2.89-18.47-1.22-20.91-2.64.61-3.54,4.39-3.66,6.34-.79-9.52,4.19-13.66,7.4-14s3.66,4.8,2.33,5.37-1.68-2.07-1.47-2.68c-1.79.73-2.28,3.86-.65,5.32S283.9,259.38,282.27,253Z" transform="translate(-253.09 -85)"/><path class="cls-1" d="M287.27,222.35c2.2-18.18-11.16-20.25-12.79-13.91s2.28,8.46,3.91,7,1.14-4.59-.65-5.32c.21.61-.14,3.25-1.47,2.68s-.87-5.65,2.34-5.36,8.18,4.42,7.4,13.94c-.13-2-1-5.73-3.67-6.34,1.67,2.44,4.11,15.89-1.22,20.92.73-1.35.85-6.35-.33-9.21-1.18,1-1.79,4.57-2,7.25s-2.16,6.59-4.73,7.38C274.07,241.37,285.07,240.52,287.27,222.35Z" transform="translate(-253.09 -85)"/><path class="cls-1" d="M262.5,253c2.45-.12,3.26-4.33,1.47-6.22.12.67-.65,2.5-1.51,1s0-4.75,2.37-4.45,3.38,4.45,2.56,10.86-.85,11.83,0,14.39c-1.79-4.51-4.44-6.95-5.09-7.2-.08,3.11.91,13.71,10.26,17.81a32.34,32.34,0,0,1-4.07-21.1c1.71-12.56,8.64-15.12,11-15.49-2.77-2.07-8.55-.61-9.94,3.9-2.28-7.19-6.35-9.14-9.29-3.9S260.06,253.1,262.5,253Z" transform="translate(-253.09 -85)"/><path class="cls-1" d="M271.11,229.06c1.46,1.79,3.16,6.83,3.27,11.39A26.43,26.43,0,0,0,271.56,222c-4.66,6.34-4.29,18.78-4.29,18.78C267.72,236.52,269.28,233.13,271.11,229.06Z" transform="translate(-253.09 -85)"/><path class="cls-1" d="M268.51,242a7.39,7.39,0,0,1,1.13,2.24,4.09,4.09,0,0,1,1.92-2.36,18.42,18.42,0,0,0,0-9.33C269.8,234.29,268.51,242,268.51,242Z" transform="translate(-253.09 -85)"/><path class="cls-1" d="M280,217.35s-6.09,2.6-7.88-4.71,2.6-13.21,8.64-19.19c5.22-5.16,5.75-17.32-3.26-19.19,4.34,4.39,5.63,11.58-.92,17.72-7.37,6.91-8.53,17.81-6.28,22.53C273.67,221.48,280,217.35,280,217.35Z" transform="translate(-253.09 -85)"/><path class="cls-1" d="M280.41,196.41c-1.79,1.26-6.53,6.26-6.34,9.64,0,0,3.35-4.47,9.7,0,0-1-2.39-5.53-4.12-5.2,4.89-3.09,6.28-10.73,5.48-12.69A13,13,0,0,1,280.41,196.41Z" transform="translate(-253.09 -85)"/><path class="cls-1" d="M276.51,260.12c-1.35,0-2.44,1.64-2.44,3.66s1.09,3.66,2.44,3.66,2.44-1.64,2.44-3.66S277.86,260.12,276.51,260.12Z" transform="translate(-253.09 -85)"/><path class="cls-1" d="M282.68,298s-11,.85-13.2,19S280.64,337.3,282.27,331s-2.28-8.46-3.91-7-1.14,4.59.65,5.32c-.21-.61.14-3.25,1.47-2.68s.87,5.65-2.33,5.36-8.19-4.42-7.4-13.94c.12,2,1,5.73,3.66,6.34-1.67-2.44-4.1-15.89,1.22-20.92-.73,1.35-.85,6.35.33,9.21,1.18-1,1.79-4.57,2-7.26S280.11,298.82,282.68,298Z" transform="translate(-253.09 -85)"/><path class="cls-1" d="M274.07,342.62c2.57.8,4.52,4.7,4.73,7.38s.81,6.22,2,7.26c1.18-2.87,1.06-7.87.33-9.21,5.33,5,2.89,18.48,1.22,20.92,2.65-.61,3.54-4.39,3.67-6.34.78,9.52-4.2,13.66-7.4,13.94s-3.67-4.79-2.34-5.36,1.68,2.07,1.47,2.68c1.79-.73,2.28-3.86.65-5.33s-5.54.65-3.91,7,15,4.26,12.79-13.91S274.07,342.62,274.07,342.62Z" transform="translate(-253.09 -85)"/><path class="cls-1" d="M269.55,337.55c1.39,4.51,7.17,6,9.94,3.9-2.36-.37-9.29-2.93-11-15.49a32.32,32.32,0,0,1,4.07-21.1c-9.35,4.1-10.34,14.69-10.26,17.8.65-.24,3.3-2.68,5.09-7.19-.85,2.56-.81,8,0,14.39s-.24,10.55-2.56,10.86-3.22-2.93-2.37-4.46,1.63.31,1.51,1c1.79-1.89,1-6.1-1.47-6.22s-5.17,5.18-2.24,10.43S267.27,344.74,269.55,337.55Z" transform="translate(-253.09 -85)"/><path class="cls-1" d="M271.56,362a26.43,26.43,0,0,0,2.82-18.46c-.11,4.56-1.81,9.6-3.27,11.39-1.83-4.07-3.39-7.46-3.84-11.71C267.27,343.23,266.9,355.67,271.56,362Z" transform="translate(-253.09 -85)"/><path class="cls-1" d="M269.64,339.73a7.39,7.39,0,0,1-1.13,2.24s1.29,7.74,3.05,9.45a18.42,18.42,0,0,0,0-9.33A4.12,4.12,0,0,1,269.64,339.73Z" transform="translate(-253.09 -85)"/><path class="cls-1" d="M272.15,303.55c-9.5,1.95-12-11.55-12-11.55s2.5-13.5,12-11.55c-3.31-1-7.44-5.53-7.44-5.53A23.12,23.12,0,0,0,253.09,292a23.09,23.09,0,0,0,11.62,17.07S268.84,304.52,272.15,303.55Z" transform="translate(-253.09 -85)"/><path class="cls-1" d="M280.79,390.55c-6-6-10.43-11.87-8.64-19.19s7.88-4.71,7.88-4.71-6.36-4.13-9.7,2.84c-2.25,4.72-1.09,15.61,6.28,22.53,6.55,6.14,5.26,13.33.92,17.72C286.54,407.87,286,395.71,280.79,390.55Z" transform="translate(-253.09 -85)"/><path class="cls-1" d="M279.65,383.15c1.73.33,4.12-4.23,4.12-5.2-6.35,4.47-9.7,0-9.7,0-.19,3.38,4.55,8.37,6.34,9.64a13,13,0,0,1,4.72,8.25C285.93,393.87,284.54,386.24,279.65,383.15Z" transform="translate(-253.09 -85)"/><path class="cls-1" d="M274.07,320.22c0,2,1.09,3.65,2.44,3.65s2.44-1.63,2.44-3.65-1.09-3.66-2.44-3.66S274.07,318.19,274.07,320.22Z" transform="translate(-253.09 -85)"/><path class="cls-1" d="M268.87,284.22c-2.87,0-5.2,3.48-5.2,7.78s2.33,7.78,5.2,7.78S283.2,292,283.2,292,271.74,284.22,268.87,284.22Z" transform="translate(-253.09 -85)"/><path class="cls-1" d="M273.15,199.93l.28-.38v-84.1h55.81a31.53,31.53,0,0,1,4-3.62H271v93A21.34,21.34,0,0,1,273.15,199.93Z" transform="translate(-253.09 -85)"/><path class="cls-1" d="M329.31,468.54H273.43V387a34.11,34.11,0,0,1-2.42-4v89.18h61.05A13.64,13.64,0,0,1,329.31,468.54Z" transform="translate(-253.09 -85)"/><path class="cls-1" d="M509.25,390.65v77.89H454a22,22,0,0,1-3.17,3.63h60.85V387.26A17.31,17.31,0,0,1,509.25,390.65Z" transform="translate(-253.09 -85)"/><path class="cls-1" d="M509.25,198.57l.67,1a16.9,16.9,0,0,1,1.76,3.44V111.83H450.84c.72,1.17,1.44,2.35,2.08,3.62h56.33Z" transform="translate(-253.09 -85)"/><path class="cls-1" d="M326.24,461.65H278V392c-.21-.12-.41-.26-.61-.4v71H326.6Z" transform="translate(-253.09 -85)"/><path class="cls-1" d="M504.85,394.19a.64.64,0,0,1-.2,0v67.49H457.47c-.1.31-.21.61-.32.91h48.1v-68.4C505.12,394.17,505,394.19,504.85,394.19Z" transform="translate(-253.09 -85)"/><path class="cls-1" d="M504.65,192.65c.2.22.4.44.6.68V121.44h-48.7c.13.3.25.6.36.91h47.74Z" transform="translate(-253.09 -85)"/><path class="cls-1" d="M278,193.7V122.35h47.2v-.5a2.83,2.83,0,0,1,0-.41H277.43v73.24C277.64,194.37,277.85,194.05,278,193.7Z" transform="translate(-253.09 -85)"/></svg>