<svg id="Capa_1" data-name="Capa 1" xmlns="http://www.w3.org/2000/svg" viewBox="0 0 414 276.5"><path d="M208.89,275.27c3.29,12.13,19.76,12.7,19.76,12.7-3.85-.53-6.77-3.13-7.08-4.92s-1.22-4.16-3-4.85c-1.76,1.91-1.58,5.25-.48,6.15-8-3.36-4.33-12.34-1.83-14-4,.41-5.31,2.93-5.49,4.23-1.18-6.36,6.28-9.12,11.08-9.31s5.48,3.2,3.49,3.58-2.52-1.38-2.19-1.79c-2.69.49-3.42,2.58-1,3.56s8.3-.43,5.86-4.67S205.59,263.13,208.89,275.27Z" transform="translate(-184.34 -153.75)"/><path d="M216.37,236.19c-2.44,4.24,3.41,5.65,5.85,4.67s1.71-3.06-1-3.55c.33.4-.2,2.17-2.19,1.79s-1.3-3.78,3.5-3.59,12.26,3,11.07,9.32c-.18-1.31-1.52-3.83-5.48-4.24,2.5,1.63,6.14,10.62-1.83,14,1.09-.89,1.28-4.23-.49-6.15-1.77.69-2.68,3.06-3,4.85s-3.23,4.4-7.07,4.93c0,0,16.46-.57,19.76-12.71S218.8,232,216.37,236.19Z" transform="translate(-184.34 -153.75)"/><path d="M209,261.58c-3.42-4.81-9.52-6.11-13.91-2.61s-.3,7,3.36,7,4.87-2.89,2.19-4.16c.18.45-1,1.67-2.26.66s.07-3.18,3.54-3,5.06,3,3.84,7.25-1.28,7.9,0,9.62a17.14,17.14,0,0,0-7.62-4.81c-.12,2.08,1.36,9.15,15.37,11.89,0,0-8.66-5.7-6.1-14.09s12.93-10.1,16.47-10.35C219.72,257.59,211.06,258.57,209,261.58Z" transform="translate(-184.34 -153.75)"/><path d="M205.57,257.78c.68-2.84,3-5.1,5.75-7.82a10.63,10.63,0,0,1,4.9,7.61c1-2,2.52-6.79-4.23-12.33C205,249.48,205.57,257.78,205.57,257.78Z" transform="translate(-184.34 -153.75)"/><path d="M207.44,258.63a5.55,5.55,0,0,1,1.68,1.49c.43-1,2.87-1.57,2.87-1.57a5.91,5.91,0,0,0,0-6.24C209.37,253.45,207.44,258.63,207.44,258.63Z" transform="translate(-184.34 -153.75)"/><path d="M219.55,225.2c-11,4.62-12.77,11.89-9.39,15,5,4.66,14.51,1.9,14.51,1.9s-9.1,1.74-11.79-3.15,3.89-8.82,12.94-12.81c7.81-3.45,8.61-11.57-4.89-12.82C227.44,216.29,229.36,221.1,219.55,225.2Z" transform="translate(-184.34 -153.75)"/><path d="M225.24,228.16c-2.68.84-9.77,4.18-9.48,6.44,0,0,5-3,14.52,0,0-.66-3.57-3.7-6.18-3.48,7.32-2.06,9.41-7.16,8.22-8.47C231.58,225.15,227.93,227.31,225.24,228.16Z" transform="translate(-184.34 -153.75)"/><path d="M215.75,273.15c0,1.35,1.64,2.45,3.66,2.45s3.66-1.1,3.66-2.45-1.64-2.44-3.66-2.44S215.75,271.8,215.75,273.15Z" transform="translate(-184.34 -153.75)"/><path d="M208.89,308.73c-3.3,12.14,16.71,13.53,19.15,9.29s-3.42-5.65-5.86-4.67-1.71,3.07,1,3.56c-.33-.41.2-2.18,2.19-1.8s1.3,3.78-3.49,3.59-12.26-3-11.08-9.32c.18,1.31,1.52,3.83,5.49,4.24-2.5-1.63-6.15-10.62,1.83-14-1.1.9-1.28,4.24.48,6.15,1.77-.69,2.69-3.05,3-4.85s3.23-4.4,7.08-4.93C228.65,296,212.18,296.59,208.89,308.73Z" transform="translate(-184.34 -153.75)"/><path d="M222.83,330.74c.31,1.79,1.22,4.15,3,4.85,1.77-1.92,1.58-5.26.49-6.15,8,3.35,4.33,12.34,1.83,14,4-.41,5.3-2.94,5.48-4.24,1.19,6.36-6.28,9.12-11.07,9.31s-5.49-3.2-3.5-3.58,2.52,1.38,2.19,1.79c2.69-.49,3.42-2.58,1-3.55s-8.29.43-5.85,4.67,22.44,2.85,19.15-9.29-19.76-12.71-19.76-12.71C219.6,326.34,222.52,329,222.83,330.74Z" transform="translate(-184.34 -153.75)"/><path d="M213.5,300.59c-14,2.74-15.49,9.81-15.37,11.89a17.14,17.14,0,0,0,7.62-4.81c-1.28,1.71-1.22,5.34,0,9.62s-.36,7-3.84,7.25-4.82-2-3.54-3,2.44.21,2.26.65c2.68-1.26,1.46-4.07-2.19-4.15s-7.75,3.46-3.36,7,10.49,2.19,13.91-2.61c2.07,3,10.73,4,14.88,2.61-3.54-.25-13.91-2-16.47-10.35S213.5,300.59,213.5,300.59Z" transform="translate(-184.34 -153.75)"/><path d="M216.22,326.43a10.59,10.59,0,0,1-4.9,7.6c-2.75-2.71-5.07-5-5.75-7.82,0,0-.55,8.31,6.42,12.55C218.74,333.22,217.19,328.39,216.22,326.43Z" transform="translate(-184.34 -153.75)"/><path d="M212,325.45s-2.44-.59-2.87-1.57a5.71,5.71,0,0,1-1.68,1.49s1.93,5.17,4.55,6.31A5.89,5.89,0,0,0,212,325.45Z" transform="translate(-184.34 -153.75)"/><path d="M194.91,292s3.74-9,18-7.71c-5-.65-11.14-3.7-11.14-3.7s-14.47,3.05-17.4,11.41c2.93,8.36,17.4,11.4,17.4,11.4s6.18-3,11.14-3.69C198.65,301,194.91,292,194.91,292Z" transform="translate(-184.34 -153.75)"/><path d="M225.82,357.82c-9-4-15.62-7.93-12.94-12.82s11.79-3.15,11.79-3.15-9.53-2.75-14.51,1.91c-3.38,3.14-1.64,10.42,9.39,15,9.81,4.1,7.89,8.91,1.38,11.84C234.43,369.39,233.63,361.27,225.82,357.82Z" transform="translate(-184.34 -153.75)"/><path d="M215.76,349.4c-.29,2.26,6.8,5.6,9.48,6.44s6.34,3,7.08,5.51c1.19-1.31-.9-6.41-8.22-8.47,2.61.22,6.18-2.83,6.18-3.48C220.77,352.39,215.76,349.4,215.76,349.4Z" transform="translate(-184.34 -153.75)"/><path d="M215.75,310.84c0,1.35,1.64,2.45,3.66,2.45s3.66-1.1,3.66-2.45-1.64-2.44-3.66-2.44S215.75,309.49,215.75,310.84Z" transform="translate(-184.34 -153.75)"/><path d="M200.18,292c0,2.87,3.48,5.2,7.78,5.2s21.47-5.2,21.47-5.2-17.17-5.2-21.47-5.2S200.18,289.13,200.18,292Z" transform="translate(-184.34 -153.75)"/><path d="M573.8,308.73C570.51,296.59,554,296,554,296c3.84.53,6.77,3.14,7.07,4.93s1.22,4.16,3,4.85c1.77-1.91,1.59-5.25.49-6.15,8,3.35,4.33,12.34,1.83,14,4-.41,5.3-2.93,5.49-4.24,1.18,6.36-6.28,9.13-11.08,9.32s-5.49-3.21-3.5-3.59,2.52,1.39,2.2,1.8c2.68-.49,3.41-2.58,1-3.56s-8.29.43-5.85,4.67S577.09,320.87,573.8,308.73Z" transform="translate(-184.34 -153.75)"/><path d="M566.32,347.8c2.44-4.23-3.42-5.64-5.85-4.66s-1.71,3.06,1,3.55c-.32-.41.2-2.17,2.19-1.79s1.31,3.77-3.49,3.58-12.26-3-11.08-9.31c.18,1.3,1.53,3.83,5.49,4.24-2.5-1.63-6.15-10.62,1.83-14-1.1.89-1.28,4.23.49,6.15,1.77-.7,2.68-3.06,3-4.85s3.24-4.4,7.08-4.93c0,0-16.47.57-19.76,12.71S563.88,352,566.32,347.8Z" transform="translate(-184.34 -153.75)"/><path d="M575.28,314.68c-2.56,8.39-12.92,10.1-16.46,10.35,4.14,1.38,12.81.4,14.88-2.61,3.42,4.8,9.51,6.11,13.9,2.61s.31-7-3.35-7-4.88,2.89-2.2,4.15c-.18-.44,1-1.67,2.26-.65s-.06,3.18-3.54,3-5.06-3-3.84-7.25,1.28-7.91,0-9.62a17.16,17.16,0,0,0,7.63,4.81c.12-2.08-1.37-9.15-15.37-11.89C569.19,300.59,577.85,306.29,575.28,314.68Z" transform="translate(-184.34 -153.75)"/><path d="M577.12,326.21c-.69,2.84-3,5.11-5.76,7.82a10.58,10.58,0,0,1-4.89-7.6c-1,2-2.52,6.79,4.23,12.33C577.66,334.52,577.12,326.21,577.12,326.21Z" transform="translate(-184.34 -153.75)"/><path d="M570.7,331.69c2.62-1.15,4.55-6.32,4.55-6.32a5.69,5.69,0,0,1-1.69-1.49c-.42,1-2.86,1.57-2.86,1.57A5.88,5.88,0,0,0,570.7,331.69Z" transform="translate(-184.34 -153.75)"/><path d="M569.8,345c2.69,4.89-3.88,8.82-12.93,12.82-7.81,3.45-8.62,11.57,4.88,12.82-6.5-2.93-8.42-7.74,1.38-11.84,11-4.62,12.77-11.9,9.39-15-5-4.66-14.51-1.91-14.51-1.91S567.12,340.12,569.8,345Z" transform="translate(-184.34 -153.75)"/><path d="M557.44,355.84c2.69-.84,9.78-4.18,9.49-6.44,0,0-5,3-14.53,0,0,.66,3.58,3.7,6.18,3.48-7.32,2.06-9.4,7.16-8.21,8.47C551.1,358.85,554.76,356.69,557.44,355.84Z" transform="translate(-184.34 -153.75)"/><path d="M566.94,310.84c0-1.35-1.64-2.44-3.66-2.44s-3.66,1.09-3.66,2.44,1.64,2.45,3.66,2.45S566.94,312.19,566.94,310.84Z" transform="translate(-184.34 -153.75)"/><path d="M573.8,275.27c3.29-12.14-16.71-13.53-19.15-9.29s3.42,5.65,5.85,4.67,1.71-3.07-1-3.56c.32.41-.2,2.18-2.2,1.79s-1.3-3.77,3.5-3.58,12.26,2.95,11.08,9.31c-.19-1.3-1.53-3.82-5.49-4.23,2.5,1.63,6.15,10.61-1.83,14,1.1-.9,1.28-4.24-.49-6.15-1.77.69-2.68,3.05-3,4.85s-3.23,4.39-7.07,4.92C554,288,570.51,287.4,573.8,275.27Z" transform="translate(-184.34 -153.75)"/><path d="M559.85,253.26c-.3-1.79-1.21-4.16-3-4.85-1.77,1.92-1.59,5.26-.49,6.15-8-3.35-4.33-12.34-1.83-14-4,.41-5.31,2.93-5.49,4.24-1.18-6.36,6.28-9.13,11.08-9.32s5.49,3.21,3.49,3.59-2.51-1.39-2.19-1.79c-2.68.49-3.42,2.58-1,3.55s8.29-.43,5.85-4.67-22.44-2.85-19.15,9.29,19.76,12.71,19.76,12.71C563.09,257.66,560.16,255.05,559.85,253.26Z" transform="translate(-184.34 -153.75)"/><path d="M573.7,261.58c-2.07-3-10.74-4-14.88-2.61,3.54.25,13.9,2,16.46,10.35s-6.09,14.09-6.09,14.09c14-2.74,15.49-9.81,15.37-11.89a17.2,17.2,0,0,0-7.63,4.8c1.28-1.71,1.22-5.33,0-9.61s.37-7,3.84-7.25,4.82,2,3.54,3-2.44-.21-2.26-.66c-2.68,1.27-1.46,4.08,2.2,4.16s7.75-3.46,3.35-7S577.12,256.77,573.7,261.58Z" transform="translate(-184.34 -153.75)"/><path d="M566.47,257.57a10.62,10.62,0,0,1,4.89-7.61c2.75,2.72,5.07,5,5.76,7.82,0,0,.54-8.3-6.42-12.54C564,250.78,565.49,255.61,566.47,257.57Z" transform="translate(-184.34 -153.75)"/><path d="M573.56,260.12a5.53,5.53,0,0,1,1.69-1.49s-1.93-5.18-4.55-6.32a5.88,5.88,0,0,0,0,6.24S573.14,259.14,573.56,260.12Z" transform="translate(-184.34 -153.75)"/><path d="M587.77,292s-3.74,9-18,7.71c5,.65,11.14,3.69,11.14,3.69s14.48-3,17.4-11.4c-2.92-8.36-17.4-11.41-17.4-11.41s-6.18,3.05-11.14,3.7C584,283,587.77,292,587.77,292Z" transform="translate(-184.34 -153.75)"/><path d="M556.87,226.18c9,4,15.62,7.93,12.93,12.81S558,242.14,558,242.14s9.53,2.76,14.51-1.9c3.38-3.15,1.64-10.42-9.39-15-9.8-4.1-7.88-8.91-1.38-11.84C548.25,214.61,549.06,222.73,556.87,226.18Z" transform="translate(-184.34 -153.75)"/><path d="M566.93,234.6c.29-2.26-6.8-5.6-9.49-6.44s-6.34-3-7.07-5.51c-1.19,1.31.89,6.41,8.21,8.47-2.6-.22-6.18,2.82-6.18,3.48C561.91,231.61,566.93,234.6,566.93,234.6Z" transform="translate(-184.34 -153.75)"/><path d="M566.94,273.15c0-1.35-1.64-2.44-3.66-2.44s-3.66,1.09-3.66,2.44,1.64,2.45,3.66,2.45S566.94,274.5,566.94,273.15Z" transform="translate(-184.34 -153.75)"/><path d="M582.51,292c0-2.87-3.49-5.2-7.79-5.2s-21.46,5.2-21.46,5.2,17.16,5.2,21.46,5.2S582.51,294.87,582.51,292Z" transform="translate(-184.34 -153.75)"/><path d="M430.3,182.93c6.34-1.63,4.27-15-13.9-12.79s-19,13.2-19,13.2c.79-2.57,4.7-4.52,7.38-4.73s6.22-.81,7.25-2c-2.86-1.18-7.86-1.06-9.2-.33,5-5.33,18.48-2.89,20.92-1.22-.61-2.65-4.4-3.54-6.35-3.67,9.53-.79,13.66,4.2,13.95,7.4s-4.8,3.67-5.37,2.34,2.07-1.69,2.69-1.47c-.74-1.79-3.87-2.28-5.33-.65S424,184.56,430.3,182.93Z" transform="translate(-184.34 -153.75)"/><path d="M474.9,175.14c-6.34-1.63-8.46,2.28-7,3.91s4.59,1.14,5.32-.66c-.61.22-3.25-.13-2.68-1.46s5.65-.87,5.37,2.33-4.43,8.19-13.95,7.4c1.95-.12,5.73-1,6.34-3.66-2.44,1.67-15.89,4.1-20.91-1.22,1.34.73,6.34.85,9.2-.33-1-1.18-4.57-1.79-7.25-2s-6.59-2.16-7.38-4.72c0,0,.85,11,19,13.2S481.24,176.77,474.9,175.14Z" transform="translate(-184.34 -153.75)"/><path d="M430.36,163.16c.12,2.44,4.33,3.26,6.22,1.47-.67.12-2.5-.65-1-1.51s4.76,0,4.45,2.36-4.45,3.38-10.86,2.57-11.83-.86-14.39,0c4.51-1.79,6.95-4.44,7.2-5.09-3.11-.08-13.71.91-17.81,10.26a32.34,32.34,0,0,1,21.1-4.07c12.56,1.71,15.13,8.63,15.49,11,2.07-2.77.61-8.56-3.9-9.94,7.19-2.28,9.15-6.36,3.9-9.29S430.24,160.72,430.36,163.16Z" transform="translate(-184.34 -153.75)"/><path d="M454.28,171.77c-1.79,1.46-6.83,3.16-11.38,3.27a26.38,26.38,0,0,0,18.45-2.83c-6.34-4.65-18.78-4.29-18.78-4.29C446.82,168.38,450.21,169.93,454.28,171.77Z" transform="translate(-184.34 -153.75)"/><path d="M441.31,169.17a7.24,7.24,0,0,1-2.24,1.13,4,4,0,0,1,2.36,1.91,18.29,18.29,0,0,0,9.33,0C449.06,170.46,441.31,169.17,441.31,169.17Z" transform="translate(-184.34 -153.75)"/><path d="M466,180.68s-2.6-6.08,4.72-7.87,13.2,2.59,19.19,8.64c5.16,5.21,17.32,5.75,19.19-3.26-4.4,4.34-11.59,5.62-17.73-.93-6.91-7.36-17.81-8.52-22.52-6.27C461.87,174.32,466,180.68,466,180.68Z" transform="translate(-184.34 -153.75)"/><path d="M486.93,181.06c-1.26-1.79-6.26-6.52-9.64-6.33,0,0,4.47,3.35,0,9.7,1,0,5.53-2.39,5.21-4.13,3.08,4.89,10.72,6.28,12.68,5.49A13,13,0,0,1,486.93,181.06Z" transform="translate(-184.34 -153.75)"/><path d="M423.22,177.17c0-1.35-1.64-2.45-3.66-2.45s-3.66,1.1-3.66,2.45,1.64,2.44,3.66,2.44S423.22,178.52,423.22,177.17Z" transform="translate(-184.34 -153.75)"/><path d="M385.32,183.34s-.86-11-19-13.2S346,181.3,352.38,182.93s8.46-2.28,7-3.91-4.6-1.14-5.33.65c.61-.22,3.25.14,2.68,1.47s-5.65.87-5.36-2.34,4.42-8.19,13.94-7.4c-1.95.13-5.73,1-6.34,3.67,2.44-1.67,15.9-4.11,20.92,1.22-1.34-.73-6.34-.85-9.21.33,1,1.18,4.57,1.79,7.26,2S384.52,180.77,385.32,183.34Z" transform="translate(-184.34 -153.75)"/><path d="M340.72,174.73c-.8,2.56-4.7,4.52-7.38,4.72s-6.22.82-7.26,2c2.87,1.18,7.87,1.06,9.21.33-5,5.32-18.48,2.89-20.92,1.22.61,2.64,4.39,3.54,6.34,3.66-9.52.79-13.66-4.19-13.94-7.4s4.8-3.66,5.37-2.33-2.08,1.68-2.69,1.46c.73,1.8,3.86,2.29,5.33.66s-.65-5.54-7-3.91-4.26,15,13.91,12.79S340.72,174.73,340.72,174.73Z" transform="translate(-184.34 -153.75)"/><path d="M345.8,170.21c-4.52,1.38-6,7.17-3.91,9.94.37-2.37,2.93-9.29,15.49-11a32.32,32.32,0,0,1,21.1,4.07c-4.1-9.35-14.69-10.34-17.8-10.26.24.65,2.68,3.3,7.19,5.09-2.56-.86-8-.82-14.39,0s-10.55-.25-10.85-2.57,2.92-3.22,4.45-2.36-.31,1.63-1,1.51c1.89,1.79,6.1,1,6.22-1.47s-5.18-5.17-10.43-2.24S338.6,167.93,345.8,170.21Z" transform="translate(-184.34 -153.75)"/><path d="M321.33,172.21A26.4,26.4,0,0,0,339.79,175c-4.55-.11-9.6-1.81-11.38-3.27,4.06-1.84,7.45-3.39,11.7-3.85C340.11,167.92,327.67,167.56,321.33,172.21Z" transform="translate(-184.34 -153.75)"/><path d="M343.61,170.3a7.26,7.26,0,0,1-2.23-1.13s-7.75,1.29-9.46,3a18.29,18.29,0,0,0,9.33,0A4.09,4.09,0,0,1,343.61,170.3Z" transform="translate(-184.34 -153.75)"/><path d="M374.27,165.37s4.55,4.13,5.53,7.44c-2-9.5,11.54-12,11.54-12s13.5,2.5,11.55,12c1-3.31,5.53-7.44,5.53-7.44a23.09,23.09,0,0,0-17.08-11.62A23.06,23.06,0,0,0,374.27,165.37Z" transform="translate(-184.34 -153.75)"/><path d="M292.79,181.45c6-6,11.87-10.43,19.19-8.64s4.72,7.87,4.72,7.87,4.12-6.36-2.85-9.69c-4.72-2.25-15.61-1.09-22.52,6.27-6.15,6.55-13.34,5.27-17.73.93C275.47,187.2,287.63,186.66,292.79,181.45Z" transform="translate(-184.34 -153.75)"/><path d="M300.19,180.3c-.33,1.74,4.23,4.13,5.2,4.13-4.47-6.35,0-9.7,0-9.7-3.37-.19-8.37,4.54-9.64,6.33a13,13,0,0,1-8.25,4.73C289.47,186.58,297.1,185.19,300.19,180.3Z" transform="translate(-184.34 -153.75)"/><path d="M363.13,174.72c-2,0-3.66,1.1-3.66,2.45s1.64,2.44,3.66,2.44,3.66-1.09,3.66-2.44S365.15,174.72,363.13,174.72Z" transform="translate(-184.34 -153.75)"/><path d="M391.34,164.32c-4.3,0-7.78,2.33-7.78,5.2s7.78,14.34,7.78,14.34,7.79-11.46,7.79-14.34S395.64,164.32,391.34,164.32Z" transform="translate(-184.34 -153.75)"/><path d="M352.38,401.07c-6.34,1.63-4.27,15,13.91,12.79s19-13.2,19-13.2c-.8,2.57-4.7,4.52-7.38,4.73s-6.22.81-7.26,2c2.87,1.18,7.87,1.06,9.21.33-5,5.33-18.48,2.89-20.92,1.22.61,2.65,4.39,3.54,6.34,3.67-9.52.78-13.66-4.2-13.94-7.4s4.79-3.67,5.36-2.34-2.07,1.68-2.68,1.47c.73,1.79,3.86,2.28,5.33.65S358.73,399.44,352.38,401.07Z" transform="translate(-184.34 -153.75)"/><path d="M321.69,396.07c-18.17-2.2-20.25,11.16-13.9,12.79s8.45-2.28,7-3.91-4.6-1.14-5.33.65c.61-.21,3.26.14,2.69,1.47s-5.66.87-5.37-2.33,4.42-8.19,13.94-7.4c-1.95.12-5.73,1-6.34,3.66,2.44-1.67,15.9-4.1,20.92,1.22-1.34-.73-6.34-.85-9.21.33,1,1.18,4.58,1.79,7.26,2s6.58,2.16,7.38,4.73C340.72,409.27,339.86,398.27,321.69,396.07Z" transform="translate(-184.34 -153.75)"/><path d="M352.32,420.84c-.12-2.45-4.33-3.26-6.22-1.47.67-.12,2.5.65,1,1.51s-4.76,0-4.45-2.36,4.45-3.38,10.85-2.57,11.83.86,14.39,0c-4.51,1.79-6.95,4.44-7.19,5.09,3.11.08,13.7-.91,17.8-10.26a32.32,32.32,0,0,1-21.1,4.07c-12.56-1.71-15.12-8.63-15.49-11-2.07,2.77-.61,8.56,3.91,9.94-7.2,2.28-9.15,6.36-3.91,9.29S352.44,423.28,352.32,420.84Z" transform="translate(-184.34 -153.75)"/><path d="M328.41,412.23c1.78-1.46,6.83-3.16,11.38-3.27a26.4,26.4,0,0,0-18.46,2.83c6.34,4.65,18.78,4.29,18.78,4.29C335.86,415.62,332.47,414.07,328.41,412.23Z" transform="translate(-184.34 -153.75)"/><path d="M341.38,414.83a7.26,7.26,0,0,1,2.23-1.13,4.09,4.09,0,0,1-2.36-1.91,18.29,18.29,0,0,0-9.33,0C333.63,413.54,341.38,414.83,341.38,414.83Z" transform="translate(-184.34 -153.75)"/><path d="M316.7,403.31s2.6,6.09-4.72,7.88-13.21-2.59-19.19-8.64c-5.16-5.21-17.32-5.75-19.19,3.26,4.39-4.34,11.58-5.62,17.73.93,6.91,7.36,17.8,8.52,22.52,6.27C320.82,409.68,316.7,403.31,316.7,403.31Z" transform="translate(-184.34 -153.75)"/><path d="M295.75,402.93c1.27,1.8,6.27,6.53,9.64,6.34,0,0-4.47-3.35,0-9.7-1,0-5.53,2.39-5.2,4.12-3.09-4.88-10.72-6.27-12.69-5.48A13,13,0,0,1,295.75,402.93Z" transform="translate(-184.34 -153.75)"/><path d="M359.47,406.83c0,1.35,1.64,2.45,3.66,2.45s3.66-1.1,3.66-2.45-1.64-2.44-3.66-2.44S359.47,405.48,359.47,406.83Z" transform="translate(-184.34 -153.75)"/><path d="M397.37,400.66s.85,11,19,13.2,20.24-11.16,13.9-12.79-8.46,2.28-7,3.91,4.59,1.14,5.32-.65c-.61.21-3.25-.14-2.68-1.47s5.65-.87,5.37,2.34-4.42,8.18-13.95,7.4c1.95-.13,5.74-1,6.34-3.67-2.43,1.67-15.89,4.11-20.91-1.22,1.34.73,6.34.85,9.2-.33-1-1.18-4.57-1.79-7.25-2S398.16,403.23,397.37,400.66Z" transform="translate(-184.34 -153.75)"/><path d="M442,409.27c.79-2.57,4.69-4.52,7.38-4.73s6.22-.81,7.25-2c-2.86-1.18-7.86-1.06-9.2-.33,5-5.32,18.47-2.89,20.91-1.22-.61-2.65-4.39-3.54-6.34-3.66,9.52-.79,13.66,4.19,13.95,7.4s-4.8,3.66-5.37,2.33,2.07-1.68,2.68-1.47c-.73-1.79-3.86-2.28-5.32-.65s.65,5.54,7,3.91,4.27-15-13.9-12.79S442,409.27,442,409.27Z" transform="translate(-184.34 -153.75)"/><path d="M436.89,413.79c4.51-1.38,6-7.17,3.9-9.94-.36,2.37-2.93,9.29-15.49,11a32.34,32.34,0,0,1-21.1-4.07c4.1,9.35,14.7,10.34,17.81,10.26-.25-.65-2.69-3.3-7.2-5.09,2.56.86,8,.81,14.39,0s10.55.24,10.86,2.57-2.93,3.21-4.45,2.36.3-1.63,1-1.51c-1.89-1.79-6.1-1-6.22,1.47s5.19,5.17,10.43,2.24S444.08,416.07,436.89,413.79Z" transform="translate(-184.34 -153.75)"/><path d="M461.36,411.79A26.41,26.41,0,0,0,442.9,409c4.55.11,9.59,1.81,11.38,3.27-4.07,1.84-7.46,3.39-11.71,3.85C442.57,416.08,455,416.44,461.36,411.79Z" transform="translate(-184.34 -153.75)"/><path d="M439.07,413.7a7.24,7.24,0,0,1,2.24,1.13s7.75-1.29,9.45-3a18.29,18.29,0,0,0-9.33,0A4,4,0,0,1,439.07,413.7Z" transform="translate(-184.34 -153.75)"/><path d="M402.89,411.19c1.95,9.5-11.55,12-11.55,12s-13.5-2.5-11.54-12c-1,3.31-5.53,7.44-5.53,7.44a23.06,23.06,0,0,0,17.07,11.62,23.09,23.09,0,0,0,17.08-11.62S403.87,414.5,402.89,411.19Z" transform="translate(-184.34 -153.75)"/><path d="M489.9,402.55c-6,6.05-11.88,10.43-19.19,8.64s-4.72-7.88-4.72-7.88-4.12,6.37,2.84,9.7c4.72,2.25,15.62,1.09,22.53-6.27,6.14-6.55,13.33-5.27,17.73-.93C507.22,396.8,495.06,397.34,489.9,402.55Z" transform="translate(-184.34 -153.75)"/><path d="M482.5,403.69c.32-1.73-4.23-4.12-5.21-4.12,4.47,6.35,0,9.7,0,9.7,3.38.19,8.38-4.54,9.64-6.34a13.06,13.06,0,0,1,8.25-4.72C493.22,397.42,485.59,398.81,482.5,403.69Z" transform="translate(-184.34 -153.75)"/><path d="M419.56,409.28c2,0,3.66-1.1,3.66-2.45s-1.64-2.44-3.66-2.44-3.66,1.09-3.66,2.44S417.54,409.28,419.56,409.28Z" transform="translate(-184.34 -153.75)"/><path d="M383.56,414.48c0,2.87,3.48,5.19,7.78,5.19s7.79-2.32,7.79-5.19-7.79-14.34-7.79-14.34S383.56,411.6,383.56,414.48Z" transform="translate(-184.34 -153.75)"/><path d="M299.28,410.19c-.14-.09-.26-.19-.39-.28H214.8V354.1a31.62,31.62,0,0,1-3.63-4v62.25h93A20.66,20.66,0,0,1,299.28,410.19Z" transform="translate(-184.34 -153.75)"/><path d="M567.89,354v55.88H486.33a32.79,32.79,0,0,1-4,2.42h89.18V351.28A13.8,13.8,0,0,1,567.89,354Z" transform="translate(-184.34 -153.75)"/><path d="M490,174.09h77.9v55.25a22.06,22.06,0,0,1,3.63,3.18V171.66H486.61A17.54,17.54,0,0,1,490,174.09Z" transform="translate(-184.34 -153.75)"/><path d="M297.92,174.09l.94-.67a16.9,16.9,0,0,1,3.44-1.76H211.17V232.5c1.17-.72,2.36-1.43,3.63-2.08V174.09Z" transform="translate(-184.34 -153.75)"/><path d="M561,357.1v48.2h-69.7a5.81,5.81,0,0,1-.4.61h71V356.74Z" transform="translate(-184.34 -153.75)"/><path d="M493.53,178.49a.64.64,0,0,1,0,.2H561v47.18l.91.32v-48.1H493.5C493.51,178.22,493.53,178.36,493.53,178.49Z" transform="translate(-184.34 -153.75)"/><path d="M292,178.69l.68-.6H220.79V226.8c.29-.13.59-.26.9-.37V178.69Z" transform="translate(-184.34 -153.75)"/><path d="M293.05,405.3H221.69V358.11h-.49a2.71,2.71,0,0,1-.41,0v47.84H294C293.71,405.7,293.39,405.5,293.05,405.3Z" transform="translate(-184.34 -153.75)"/></svg>